<svg width="16" height="25" viewBox="0 0 16 25" fill="none" xmlns="http://www.w3.org/2000/svg">
<path fill-rule="evenodd" clip-rule="evenodd" d="M11.7825 0.710111C11.5989 0.719841 11.421 0.788943 11.2674 0.910123H11.4751C11.8037 0.931232 12.1256 1.03045 12.4222 1.20208C12.7187 1.37372 12.9842 1.61437 13.2031 1.91012C13.256 1.97983 13.2963 2.06204 13.3214 2.15155C13.3465 2.24105 13.3559 2.33588 13.3488 2.42996C13.3418 2.52404 13.3185 2.61532 13.2806 2.69799C13.2426 2.78067 13.1908 2.85291 13.1283 2.91012C12.9129 3.18967 12.6377 3.39256 12.333 3.49661C12.0282 3.60066 11.7056 3.60187 11.4003 3.50012C10.5695 3.26012 9.78861 2.94012 8.99938 2.63012C7.80086 2.09284 6.55907 1.70743 5.29414 1.48013C4.73497 1.42661 4.173 1.5266 3.65061 1.77258C3.12821 2.01856 2.65903 2.40408 2.27845 2.90011C1.93665 3.35325 1.68438 3.89354 1.54052 4.48059C1.39666 5.06763 1.36492 5.68624 1.44768 6.29013C1.50971 6.78401 1.69324 7.24421 1.97458 7.61138C2.25592 7.97855 2.62218 8.23585 3.02615 8.35012C2.77317 8.01747 2.62673 7.58733 2.61303 7.13665C2.59933 6.68597 2.71927 6.24415 2.95138 5.89013C3.11299 5.69988 3.31224 5.56237 3.53029 5.49063C3.74835 5.41888 3.978 5.41528 4.19754 5.48013C5.07815 5.68013 5.94215 5.94013 6.81445 6.20013C7.55384 6.43013 8.30153 6.65011 9.05753 6.84011L9.80523 7.09011C10.4635 7.33447 11.1318 7.53808 11.8074 7.70013C11.8074 9.04013 11.8074 10.3901 11.8074 11.7001C11.4252 12.0501 11.0514 12.4101 10.6775 12.7701L10.0378 13.3901C10.6111 13.9101 11.2009 14.3901 11.7991 14.8801C11.7991 15.8801 11.7991 16.8801 11.7991 17.8801C11.7991 18.8801 11.7991 19.6601 11.7991 20.5501C10.7819 21.3706 9.54061 21.6859 8.33476 21.4301C7.08468 21.263 5.93764 20.517 5.1363 19.3501C6.51537 18.4601 7.92768 17.6201 9.33999 16.8001C9.33999 14.9301 9.33999 13.0601 9.33999 11.1801C9.33999 10.0601 9.33999 8.93011 9.33999 7.81011C8.30153 8.33011 7.27968 8.87011 6.24952 9.40011L4.06461 10.5501C4.59802 8.98614 5.58364 7.70742 6.83938 6.95013H6.72307C6.4626 6.93952 6.20294 6.99048 5.95876 7.10012C4.7968 7.65061 3.75157 8.50633 2.89929 9.60488C2.04701 10.7034 1.40917 12.0171 1.03229 13.4501C0.570514 15.4187 0.676407 17.5175 1.33269 19.4043C1.98897 21.2912 3.15693 22.8547 4.64615 23.8401C5.5151 24.4652 6.49415 24.8352 7.50399 24.9201C8.56513 25.0309 9.63331 24.8499 10.6278 24.3908C11.6223 23.9317 12.5171 23.2065 13.2446 22.2701C13.8083 21.4358 14.2265 20.4733 14.4742 19.4401C14.7551 18.4393 14.8845 17.3859 14.8563 16.3301C14.2092 17.9944 13.2407 19.4482 12.0317 20.5701V14.8901L12.1231 14.8101C12.6298 14.3401 13.1366 13.8701 13.6351 13.3801L12.2145 11.8601L12.0317 11.6701V7.67013C13.2363 7.59013 14.6237 6.8201 14.9477 5.30011C15.103 4.8036 15.1685 4.27293 15.1398 3.74353C15.1112 3.21412 14.989 2.69819 14.7815 2.23013C14.3343 1.55571 13.7107 1.08341 13.012 0.890134C12.8458 0.890134 12.688 0.830128 12.5218 0.790128C12.2791 0.726807 12.0307 0.699919 11.7825 0.710111ZM6.14984 13.0001C6.14984 14.8501 6.14984 16.7001 6.14984 18.5501C5.75107 18.7401 5.31907 18.9501 4.96184 19.1501C4.24898 17.8685 3.77824 16.4144 3.58276 14.8901C3.53817 13.6051 3.71056 12.3226 4.08953 11.1201C4.47169 10.9001 4.85384 10.6701 5.236 10.4301L6.15815 9.88012L6.14984 13.0001Z" fill="white"/>
</svg>
